<?xml version="1.0" encoding="utf-8"?>
<!-- Generator: Adobe Illustrator 24.3.0, SVG Export Plug-In . SVG Version: 6.00 Build 0)  -->
<svg version="1.1" id="Layer_1" xmlns="http://www.w3.org/2000/svg" xmlns:xlink="http://www.w3.org/1999/xlink" x="0px" y="0px"
	 viewBox="0 0 6434.56 7484.22" style="enable-background:new 0 0 6434.56 7484.22;" xml:space="preserve">
<style type="text/css">
	.st0{fill:#010101;}
	.st1{fill:none;stroke:#E8CD57;stroke-width:1.4531;stroke-miterlimit:7.2655;}
	.st2{fill:#E8CC56;}
	.st3{fill:#020202;stroke:#FFFFFF;stroke-width:40;stroke-miterlimit:10;}
</style>
<rect x="5.26" y="1.86" class="st0" width="6424.59" height="7479.55"/>
<g>
	<line class="st1" x1="-19.34" y1="382.14" x2="6437.48" y2="382.14"/>
	<line class="st1" x1="-19.34" y1="717.35" x2="6437.48" y2="717.35"/>
	<line class="st1" x1="-19.34" y1="1052.57" x2="6437.48" y2="1052.57"/>
	<line class="st1" x1="-19.34" y1="1387.79" x2="6437.48" y2="1387.79"/>
	<line class="st1" x1="-19.34" y1="1723.01" x2="6437.48" y2="1723.01"/>
	<line class="st1" x1="-19.34" y1="2058.22" x2="6437.48" y2="2058.22"/>
	<line class="st1" x1="-19.34" y1="2393.44" x2="6437.48" y2="2393.44"/>
	<line class="st1" x1="-19.34" y1="2728.66" x2="6437.48" y2="2728.66"/>
	<line class="st1" x1="-19.34" y1="3063.88" x2="6437.48" y2="3063.88"/>
	<line class="st1" x1="-19.34" y1="3399.09" x2="6437.48" y2="3399.09"/>
	<line class="st1" x1="-19.34" y1="3734.31" x2="6437.48" y2="3734.31"/>
	<line class="st1" x1="-19.34" y1="4069.53" x2="6437.48" y2="4069.53"/>
	<line class="st1" x1="-19.34" y1="4404.75" x2="6437.48" y2="4404.75"/>
	<line class="st1" x1="-19.34" y1="4739.96" x2="6437.48" y2="4739.96"/>
	<line class="st1" x1="-19.34" y1="5075.18" x2="6437.48" y2="5075.18"/>
	<line class="st1" x1="-19.34" y1="5410.4" x2="6437.48" y2="5410.4"/>
	<line class="st1" x1="-19.34" y1="5745.62" x2="6437.48" y2="5745.62"/>
	<line class="st1" x1="-19.34" y1="6080.83" x2="6437.48" y2="6080.83"/>
	<line class="st1" x1="-19.34" y1="6416.05" x2="6437.48" y2="6416.05"/>
	<line class="st1" x1="-19.34" y1="6751.27" x2="6437.48" y2="6751.27"/>
	<line class="st1" x1="-19.34" y1="7086.48" x2="6437.48" y2="7086.48"/>
	<line class="st1" x1="-19.34" y1="7421.7" x2="6437.48" y2="7421.7"/>
	<line class="st1" x1="134.57" y1="7484.71" x2="134.57" y2="11.81"/>
	<line class="st1" x1="310.78" y1="7484.71" x2="310.78" y2="11.81"/>
	<line class="st1" x1="486.98" y1="7484.71" x2="486.98" y2="11.81"/>
	<line class="st1" x1="663.19" y1="7484.71" x2="663.19" y2="11.81"/>
	<line class="st1" x1="839.39" y1="7484.71" x2="839.39" y2="11.81"/>
	<line class="st1" x1="1015.59" y1="7484.71" x2="1015.59" y2="11.81"/>
	<line class="st1" x1="1191.79" y1="7484.71" x2="1191.79" y2="11.81"/>
	<line class="st1" x1="1368" y1="7484.71" x2="1368" y2="11.81"/>
	<line class="st1" x1="1544.2" y1="7484.71" x2="1544.2" y2="11.81"/>
	<line class="st1" x1="1720.4" y1="7484.71" x2="1720.4" y2="11.81"/>
	<line class="st1" x1="1896.61" y1="7484.71" x2="1896.61" y2="11.81"/>
	<line class="st1" x1="2072.81" y1="7484.71" x2="2072.81" y2="11.81"/>
	<line class="st1" x1="2249.01" y1="7484.71" x2="2249.01" y2="11.81"/>
	<line class="st1" x1="2425.21" y1="7484.71" x2="2425.21" y2="11.81"/>
	<line class="st1" x1="2601.42" y1="7484.71" x2="2601.42" y2="11.81"/>
	<line class="st1" x1="2777.62" y1="7484.71" x2="2777.62" y2="11.81"/>
	<line class="st1" x1="2953.82" y1="7484.71" x2="2953.82" y2="11.81"/>
	<line class="st1" x1="3130.02" y1="7484.71" x2="3130.02" y2="11.81"/>
	<line class="st1" x1="3306.23" y1="7484.71" x2="3306.23" y2="11.81"/>
	<line class="st1" x1="3482.44" y1="7484.71" x2="3482.44" y2="11.81"/>
	<line class="st1" x1="3658.64" y1="7484.71" x2="3658.64" y2="11.81"/>
	<line class="st1" x1="3834.84" y1="7484.71" x2="3834.84" y2="11.81"/>
	<line class="st1" x1="4011.04" y1="7484.71" x2="4011.04" y2="11.81"/>
	<line class="st1" x1="4187.25" y1="7484.71" x2="4187.25" y2="11.81"/>
	<line class="st1" x1="4363.45" y1="7484.71" x2="4363.45" y2="11.81"/>
	<line class="st1" x1="4539.65" y1="7484.71" x2="4539.65" y2="11.81"/>
	<line class="st1" x1="4715.85" y1="7484.71" x2="4715.85" y2="11.81"/>
	<line class="st1" x1="4892.06" y1="7484.71" x2="4892.06" y2="11.81"/>
	<line class="st1" x1="5068.26" y1="7484.71" x2="5068.26" y2="11.81"/>
	<line class="st1" x1="5244.46" y1="7484.71" x2="5244.46" y2="11.81"/>
	<line class="st1" x1="5420.67" y1="7484.71" x2="5420.67" y2="11.81"/>
	<line class="st1" x1="5596.87" y1="7484.71" x2="5596.87" y2="11.81"/>
	<line class="st1" x1="5773.08" y1="7484.71" x2="5773.08" y2="11.81"/>
	<line class="st1" x1="5949.27" y1="7484.71" x2="5949.27" y2="11.81"/>
	<line class="st1" x1="6125.48" y1="7484.71" x2="6125.48" y2="11.81"/>
	<line class="st1" x1="6301.68" y1="7484.71" x2="6301.68" y2="11.81"/>
</g>
<g>
	<path class="st2" d="M-13.76,456.94h351.66c62.25,0,120.66,12.54,175.23,37.59c54.56,25.07,102.25,58.42,143.08,100.04
		c40.81,41.65,72.95,90.16,96.41,145.52c23.44,55.39,35.16,113.38,35.16,174.01c0,59.84-11.51,117.43-34.56,172.81
		c-23.04,55.38-54.98,104.1-95.8,146.12c-40.83,42.05-88.52,75.6-143.09,100.65c-54.56,25.07-113.38,37.59-176.44,37.59H200.51
		l-19.13,9261.27H-13.76V456.94z M223.92,1169.97h54.57c41.23,0,78-6.46,110.35-19.4c32.33-12.92,59.61-30.72,81.86-53.36
		c22.22-22.62,39.2-49.51,50.93-80.64c11.71-31.11,17.58-65.27,17.58-102.47c0-36.38-6.06-70.33-18.19-101.86
		c-12.12-31.53-29.31-58.6-51.54-81.25c-22.25-22.62-49.52-40.41-81.85-53.36c-32.34-12.92-68.73-19.4-109.14-19.4h-54.57V1169.97z"
		/>
	<path class="st2" d="M1459.6,658.24h-282.55v152.79h266.79v201.3h-266.79v157.64h282.55v201.3H939.37V456.94h520.22V658.24z"/>
	<path class="st2" d="M2132.6,690.98c-25.88-21.01-51.74-36.57-77.61-46.69c-25.89-10.1-50.94-15.16-75.19-15.16
		c-30.73,0-55.78,7.28-75.18,21.83c-19.4,14.56-29.1,33.56-29.1,57c0,16.18,4.85,29.51,14.56,40.02
		c9.7,10.51,22.43,19.61,38.19,27.28c15.76,7.7,33.54,14.37,53.36,20.01c19.79,5.67,39.41,11.74,58.81,18.19
		c77.61,25.89,134.39,60.44,170.38,103.68c35.96,43.26,53.96,99.64,53.96,169.16c0,46.89-7.89,89.33-23.65,127.33
		c-15.76,38.01-38.8,70.54-69.12,97.62c-30.31,27.1-67.51,48.11-111.56,63.06c-44.07,14.94-93.98,22.43-149.76,22.43
		c-115.62,0-222.72-34.36-321.34-103.08l101.86-191.6c35.56,31.53,70.73,54.98,105.49,70.33c34.75,15.37,69.12,23.04,103.08,23.04
		c38.81,0,67.7-8.89,86.7-26.68c18.99-17.77,28.5-37.99,28.5-60.63c0-13.73-2.43-25.66-7.28-35.77
		c-4.85-10.1-12.94-19.4-24.25-27.89c-11.33-8.5-26.08-16.37-44.26-23.65c-18.19-7.28-40.23-15.35-66.09-24.25
		c-30.73-9.7-60.84-20.4-90.34-32.13c-29.52-11.71-55.78-27.29-78.82-46.69c-23.04-19.4-41.64-43.84-55.78-73.36
		c-14.15-29.5-21.22-66.88-21.22-112.16c0-45.27,7.46-86.29,22.43-123.08c14.94-36.78,35.96-68.31,63.05-94.59
		c27.08-26.26,60.21-46.69,99.44-61.23c39.2-14.56,83.06-21.83,131.57-21.83c45.26,0,92.56,6.27,141.88,18.79
		c49.3,12.54,96.6,30.92,141.88,55.17L2132.6,690.98z"/>
	<path class="st2" d="M2651.6,456.94l0.74,10171.75h-237.67l-0.74-10171.75H2651.6z"/>
	<path class="st2" d="M3288.23,859.55h471.72c0,48.5-2.03,92.57-6.07,132.17c-4.05,39.62-12.12,76.4-24.25,110.35
		c-16.97,47.71-40.02,89.94-69.12,126.72c-29.1,36.79-63.27,67.51-102.47,92.16c-39.22,24.66-82.27,43.46-129.15,56.38
		c-46.89,12.93-96.21,19.41-147.94,19.41c-71.15,0-136.03-11.74-194.63-35.17c-58.63-23.44-108.95-56.38-150.97-98.82
		c-42.05-42.44-74.79-93.37-98.22-152.8c-23.46-59.42-35.16-125.09-35.16-197.05c0-71.14,11.51-136.42,34.56-195.85
		c23.04-59.42,55.78-110.14,98.22-152.18c42.44-42.03,93.56-74.77,153.4-98.22c59.82-23.44,126.51-35.16,200.08-35.16
		c95.39,0,179.06,20.61,251.02,61.84c71.94,41.23,128.93,105.1,170.98,191.6l-225.55,93.37c-21.03-50.12-48.31-86.09-81.85-107.93
		c-33.55-21.83-71.75-32.74-114.6-32.74c-35.58,0-67.9,6.67-97.01,20.01c-29.1,13.34-53.96,32.34-74.58,57
		c-20.61,24.66-36.79,54.38-48.5,89.13c-11.73,34.76-17.58,73.57-17.58,116.41c0,38.81,5.04,74.79,15.16,107.93
		c10.1,33.16,25.25,61.84,45.48,86.09c20.2,24.25,45.26,43.05,75.18,56.39c29.9,13.34,64.67,20.01,104.29,20.01
		c23.44,0,46.09-2.62,67.91-7.88c21.83-5.25,41.41-13.74,58.81-25.47c17.38-11.71,31.72-26.87,43.05-45.48
		c11.32-18.59,18.99-41.23,23.04-67.9h-195.24V859.55z"/>
	<path class="st2" d="M3911.04,10628.15L3910.3,456.94h237.67l438.97,559.02V456.94h236.47v914.33h-236.47l-438.97-559.02
		l0.74,9815.9H3911.04z"/>
	<path class="st3" d="M41.4,410.98h351.66c62.25,0,120.66,12.54,175.23,37.59c54.56,25.07,102.25,58.42,143.08,100.04
		c40.81,41.65,72.95,90.16,96.41,145.52c23.44,55.39,35.16,113.38,35.16,174.01c0,59.84-11.51,117.43-34.56,172.81
		c-23.04,55.38-54.98,104.1-95.8,146.12c-40.83,42.05-88.52,75.6-143.09,100.65c-54.56,25.07-113.38,37.59-176.44,37.59H255.67
		l-19.13,9313.46l-195.14-0.93V410.98z M279.08,1124.01h54.57c41.23,0,78-6.46,110.35-19.4c32.33-12.92,59.61-30.72,81.86-53.36
		c22.22-22.62,39.2-49.51,50.93-80.64c11.71-31.11,17.58-65.27,17.58-102.47c0-36.38-6.06-70.33-18.19-101.86
		c-12.12-31.53-29.31-58.6-51.54-81.25c-22.25-22.62-49.52-40.41-81.85-53.36c-32.34-12.92-68.73-19.4-109.14-19.4h-54.57V1124.01z"
		/>
	<path class="st3" d="M1514.76,612.28h-282.55v152.79h266.79v201.3h-266.79v157.64h282.55v201.3H994.53V410.98h520.22V612.28z"/>
	<path class="st3" d="M2187.76,645.02c-25.88-21.01-51.74-36.57-77.61-46.69c-25.89-10.1-50.94-15.16-75.19-15.16
		c-30.73,0-55.78,7.28-75.18,21.83c-19.4,14.56-29.1,33.56-29.1,57c0,16.18,4.85,29.51,14.56,40.02
		c9.7,10.51,22.43,19.61,38.19,27.28c15.76,7.7,33.54,14.37,53.36,20.01c19.79,5.67,39.41,11.74,58.81,18.19
		c77.61,25.89,134.39,60.44,170.38,103.68c35.96,43.26,53.96,99.64,53.96,169.16c0,46.89-7.89,89.33-23.65,127.33
		c-15.76,38.01-38.8,70.54-69.12,97.62c-30.31,27.1-67.51,48.11-111.56,63.06c-44.07,14.94-93.98,22.43-149.76,22.43
		c-115.62,0-222.72-34.36-321.34-103.08l101.86-191.6c35.56,31.53,70.73,54.98,105.49,70.33c34.75,15.37,69.12,23.04,103.08,23.04
		c38.81,0,67.7-8.89,86.7-26.68c18.99-17.77,28.5-37.99,28.5-60.63c0-13.73-2.43-25.66-7.28-35.77
		c-4.85-10.1-12.94-19.4-24.25-27.89c-11.33-8.5-26.08-16.37-44.26-23.65c-18.19-7.28-40.23-15.35-66.09-24.25
		c-30.73-9.7-60.84-20.4-90.34-32.13c-29.52-11.71-55.78-27.29-78.82-46.69c-23.04-19.4-41.65-43.84-55.78-73.36
		c-14.15-29.5-21.22-66.88-21.22-112.16c0-45.27,7.46-86.29,22.43-123.08c14.94-36.78,35.96-68.31,63.05-94.59
		c27.08-26.26,60.21-46.69,99.44-61.23c39.2-14.56,83.06-21.83,131.57-21.83c45.26,0,92.56,6.27,141.88,18.79
		c49.3,12.54,96.6,30.92,141.88,55.17L2187.76,645.02z"/>
	<path class="st3" d="M2706.76,410.98v10215.6h-237.67V410.98H2706.76z"/>
	<path class="st3" d="M3343.39,813.58h471.72c0,48.5-2.03,92.57-6.07,132.17c-4.05,39.62-12.12,76.4-24.25,110.35
		c-16.97,47.71-40.02,89.94-69.12,126.72c-29.1,36.79-63.27,67.51-102.47,92.16c-39.22,24.66-82.27,43.46-129.15,56.38
		c-46.89,12.93-96.21,19.41-147.94,19.41c-71.15,0-136.03-11.74-194.63-35.17c-58.63-23.44-108.95-56.38-150.97-98.82
		c-42.05-42.44-74.79-93.37-98.22-152.8c-23.46-59.42-35.16-125.09-35.16-197.05c0-71.14,11.51-136.42,34.56-195.85
		c23.04-59.42,55.78-110.14,98.22-152.18c42.44-42.03,93.56-74.77,153.4-98.22c59.82-23.44,126.51-35.16,200.08-35.16
		c95.39,0,179.06,20.61,251.02,61.84c71.94,41.23,128.93,105.1,170.98,191.6l-225.55,93.37c-21.03-50.12-48.31-86.09-81.85-107.93
		c-33.55-21.83-71.75-32.74-114.6-32.74c-35.58,0-67.9,6.67-97.01,20.01c-29.1,13.34-53.96,32.34-74.58,57
		c-20.61,24.66-36.79,54.38-48.5,89.13c-11.73,34.76-17.58,73.57-17.58,116.41c0,38.81,5.04,74.79,15.16,107.93
		c10.1,33.16,25.26,61.84,45.48,86.09c20.2,24.25,45.26,43.05,75.18,56.39c29.9,13.34,64.67,20.01,104.28,20.01
		c23.44,0,46.09-2.62,67.91-7.88c21.83-5.26,41.41-13.74,58.81-25.47c17.38-11.71,31.72-26.87,43.05-45.48
		c11.32-18.59,18.99-41.23,23.04-67.9h-195.24V813.58z"/>
	<path class="st3" d="M3970.79,10625.89l-5.33-10214.92h237.67L4642.11,970V410.98h236.47v914.33h-236.47l-438.97-559.02v9861.76
		L3970.79,10625.89z"/>
</g>
</svg>
