<?xml version="1.0" encoding="utf-8"?>
<!-- Generator: Adobe Illustrator 24.3.0, SVG Export Plug-In . SVG Version: 6.00 Build 0)  -->
<svg version="1.1" id="Layer_1" xmlns="http://www.w3.org/2000/svg" xmlns:xlink="http://www.w3.org/1999/xlink" x="0px" y="0px"
	 viewBox="0 0 6434.56 7484.22" style="enable-background:new 0 0 6434.56 7484.22;" xml:space="preserve">
<style type="text/css">
	.st0{fill:#010101;}
	.st1{fill:none;stroke:#E8CD57;stroke-width:1.4531;stroke-miterlimit:7.2655;}
	.st2{fill:#E8CC56;}
	.st3{fill:#020202;stroke:#FFFFFF;stroke-width:40;stroke-miterlimit:10;}
</style>
<rect x="5.26" y="1.86" class="st0" width="6424.59" height="7479.55"/>
<g>
	<line class="st1" x1="-19.34" y1="382.14" x2="6437.48" y2="382.14"/>
	<line class="st1" x1="-19.34" y1="717.35" x2="6437.48" y2="717.35"/>
	<line class="st1" x1="-19.34" y1="1052.57" x2="6437.48" y2="1052.57"/>
	<line class="st1" x1="-19.34" y1="1387.79" x2="6437.48" y2="1387.79"/>
	<line class="st1" x1="-19.34" y1="1723.01" x2="6437.48" y2="1723.01"/>
	<line class="st1" x1="-19.34" y1="2058.22" x2="6437.48" y2="2058.22"/>
	<line class="st1" x1="-19.34" y1="2393.44" x2="6437.48" y2="2393.44"/>
	<line class="st1" x1="-19.34" y1="2728.66" x2="6437.48" y2="2728.66"/>
	<line class="st1" x1="-19.34" y1="3063.88" x2="6437.48" y2="3063.88"/>
	<line class="st1" x1="-19.34" y1="3399.09" x2="6437.48" y2="3399.09"/>
	<line class="st1" x1="-19.34" y1="3734.31" x2="6437.48" y2="3734.31"/>
	<line class="st1" x1="-19.34" y1="4069.53" x2="6437.48" y2="4069.53"/>
	<line class="st1" x1="-19.34" y1="4404.75" x2="6437.48" y2="4404.75"/>
	<line class="st1" x1="-19.34" y1="4739.96" x2="6437.48" y2="4739.96"/>
	<line class="st1" x1="-19.34" y1="5075.18" x2="6437.48" y2="5075.18"/>
	<line class="st1" x1="-19.34" y1="5410.4" x2="6437.48" y2="5410.4"/>
	<line class="st1" x1="-19.34" y1="5745.62" x2="6437.48" y2="5745.62"/>
	<line class="st1" x1="-19.34" y1="6080.83" x2="6437.48" y2="6080.83"/>
	<line class="st1" x1="-19.34" y1="6416.05" x2="6437.48" y2="6416.05"/>
	<line class="st1" x1="-19.34" y1="6751.27" x2="6437.48" y2="6751.27"/>
	<line class="st1" x1="-19.34" y1="7086.48" x2="6437.48" y2="7086.48"/>
	<line class="st1" x1="-19.34" y1="7421.7" x2="6437.48" y2="7421.7"/>
	<line class="st1" x1="134.57" y1="7484.71" x2="134.57" y2="11.81"/>
	<line class="st1" x1="310.78" y1="7484.71" x2="310.78" y2="11.81"/>
	<line class="st1" x1="486.98" y1="7484.71" x2="486.98" y2="11.81"/>
	<line class="st1" x1="663.19" y1="7484.71" x2="663.19" y2="11.81"/>
	<line class="st1" x1="839.39" y1="7484.71" x2="839.39" y2="11.81"/>
	<line class="st1" x1="1015.59" y1="7484.71" x2="1015.59" y2="11.81"/>
	<line class="st1" x1="1191.79" y1="7484.71" x2="1191.79" y2="11.81"/>
	<line class="st1" x1="1368" y1="7484.71" x2="1368" y2="11.81"/>
	<line class="st1" x1="1544.2" y1="7484.71" x2="1544.2" y2="11.81"/>
	<line class="st1" x1="1720.4" y1="7484.71" x2="1720.4" y2="11.81"/>
	<line class="st1" x1="1896.61" y1="7484.71" x2="1896.61" y2="11.81"/>
	<line class="st1" x1="2072.81" y1="7484.71" x2="2072.81" y2="11.81"/>
	<line class="st1" x1="2249.01" y1="7484.71" x2="2249.01" y2="11.81"/>
	<line class="st1" x1="2425.21" y1="7484.71" x2="2425.21" y2="11.81"/>
	<line class="st1" x1="2601.42" y1="7484.71" x2="2601.42" y2="11.81"/>
	<line class="st1" x1="2777.62" y1="7484.71" x2="2777.62" y2="11.81"/>
	<line class="st1" x1="2953.82" y1="7484.71" x2="2953.82" y2="11.81"/>
	<line class="st1" x1="3130.02" y1="7484.71" x2="3130.02" y2="11.81"/>
	<line class="st1" x1="3306.23" y1="7484.71" x2="3306.23" y2="11.81"/>
	<line class="st1" x1="3482.44" y1="7484.71" x2="3482.44" y2="11.81"/>
	<line class="st1" x1="3658.64" y1="7484.71" x2="3658.64" y2="11.81"/>
	<line class="st1" x1="3834.84" y1="7484.71" x2="3834.84" y2="11.81"/>
	<line class="st1" x1="4011.04" y1="7484.71" x2="4011.04" y2="11.81"/>
	<line class="st1" x1="4187.25" y1="7484.71" x2="4187.25" y2="11.81"/>
	<line class="st1" x1="4363.45" y1="7484.71" x2="4363.45" y2="11.81"/>
	<line class="st1" x1="4539.65" y1="7484.71" x2="4539.65" y2="11.81"/>
	<line class="st1" x1="4715.85" y1="7484.71" x2="4715.85" y2="11.81"/>
	<line class="st1" x1="4892.06" y1="7484.71" x2="4892.06" y2="11.81"/>
	<line class="st1" x1="5068.26" y1="7484.71" x2="5068.26" y2="11.81"/>
	<line class="st1" x1="5244.46" y1="7484.71" x2="5244.46" y2="11.81"/>
	<line class="st1" x1="5420.67" y1="7484.71" x2="5420.67" y2="11.81"/>
	<line class="st1" x1="5596.87" y1="7484.71" x2="5596.87" y2="11.81"/>
	<line class="st1" x1="5773.08" y1="7484.71" x2="5773.08" y2="11.81"/>
	<line class="st1" x1="5949.27" y1="7484.71" x2="5949.27" y2="11.81"/>
	<line class="st1" x1="6125.48" y1="7484.71" x2="6125.48" y2="11.81"/>
	<line class="st1" x1="6301.68" y1="7484.71" x2="6301.68" y2="11.81"/>
</g>
<g>
	<path class="st2" d="M13.64,240.75h409.21c72.43,0,140.4,14.59,203.91,43.74c63.49,29.18,118.99,67.98,166.5,116.41
		c47.49,48.47,84.89,104.91,112.18,169.33c27.27,64.45,40.92,131.94,40.92,202.49c0,69.63-13.4,136.65-40.21,201.08
		c-26.81,64.44-63.98,121.13-111.48,170.03c-47.51,48.93-103.01,87.97-166.51,117.12c-63.49,29.17-131.94,43.74-205.31,43.74H262.97
		L240.72,12081.6H13.64V240.75z M290.21,1070.47h63.5c47.97,0,90.77-7.51,128.4-22.57c37.62-15.03,69.37-35.74,95.26-62.09
		c25.86-26.33,45.62-57.61,59.26-93.84c13.63-36.2,20.46-75.95,20.46-119.24c0-42.34-7.05-81.84-21.17-118.53
		c-14.11-36.69-34.11-68.19-59.97-94.55c-25.89-26.33-57.63-47.02-95.25-62.09c-37.64-15.03-79.97-22.57-127-22.57h-63.5V1070.47z"
		/>
	<path class="st2" d="M1728.11,474.99h-328.79v177.79h310.45v234.24h-310.45v183.44h328.79v234.24h-605.36V240.75h605.36V474.99z"/>
	<path class="st2" d="M2511.25,513.09c-30.12-24.45-60.21-42.56-90.31-54.33c-30.12-11.75-59.27-17.64-87.49-17.64
		c-35.76,0-64.91,8.47-87.48,25.4c-22.57,16.94-33.87,39.05-33.87,66.33c0,18.82,5.65,34.35,16.94,46.57
		c11.28,12.23,26.11,22.81,44.44,31.74c18.34,8.96,39.03,16.72,62.1,23.28c23.03,6.59,45.86,13.66,68.43,21.17
		c90.31,30.12,156.39,70.34,198.26,120.65c41.85,50.34,62.8,115.94,62.8,196.85c0,54.57-9.18,103.95-27.52,148.17
		c-18.34,44.23-45.15,82.09-80.43,113.59c-35.27,31.53-78.56,55.98-129.82,73.38c-51.28,17.39-109.36,26.11-174.27,26.11
		c-134.54,0-259.17-39.98-373.93-119.94l118.53-222.95c41.38,36.69,82.31,63.98,122.76,81.84c40.44,17.89,80.43,26.81,119.94,26.81
		c45.16,0,78.78-10.34,100.89-31.04c22.1-20.68,33.17-44.21,33.17-70.56c0-15.98-2.82-29.86-8.47-41.63
		c-5.65-11.75-15.06-22.57-28.22-32.45c-13.19-9.89-30.34-19.05-51.5-27.52c-21.17-8.47-46.81-17.86-76.91-28.22
		c-35.76-11.29-70.8-23.74-105.12-37.39c-34.35-13.63-64.91-31.75-91.72-54.34c-26.81-22.57-48.46-51.02-64.91-85.37
		c-16.47-34.33-24.69-77.83-24.69-130.52c0-52.68,8.68-100.41,26.11-143.23c17.39-42.8,41.85-79.48,73.37-110.07
		c31.51-30.56,70.07-54.33,115.71-71.25c45.62-16.94,96.65-25.4,153.1-25.4c52.67,0,107.71,7.29,165.09,21.87
		c57.37,14.59,112.4,35.98,165.09,64.2L2511.25,513.09z"/>
	<path class="st2" d="M3115.19,240.75l0.86,11836.37h-276.57l-0.86-11836.37H3115.19z"/>
	<path class="st2" d="M3856,709.23h548.92c0,56.44-2.36,107.72-7.06,153.8c-4.72,46.11-14.11,88.9-28.22,128.41
		c-19.75,55.51-46.57,104.66-80.43,147.46c-33.87,42.81-73.62,78.56-119.24,107.25c-45.64,28.7-95.73,50.58-150.28,65.61
		c-54.57,15.04-111.95,22.58-172.15,22.58c-82.8,0-158.29-13.66-226.48-40.93c-68.22-27.27-126.78-65.61-175.68-115
		c-48.93-49.39-87.03-108.65-114.3-177.8c-27.3-69.14-40.92-145.56-40.92-229.3c0-82.78,13.4-158.75,40.21-227.9
		c26.81-69.14,64.91-128.16,114.3-177.08c49.39-48.91,108.87-87.01,178.5-114.3c69.61-27.27,147.22-40.92,232.83-40.92
		c111,0,208.36,23.98,292.1,71.96c83.71,47.97,150.03,122.3,198.96,222.95l-262.46,108.65c-24.47-58.32-56.22-100.18-95.25-125.59
		C3950.3,463.7,3905.85,451,3856,451c-41.41,0-79.02,7.76-112.88,23.28c-33.87,15.52-62.8,37.64-86.79,66.33
		c-23.98,28.7-42.81,63.27-56.44,103.71c-13.65,40.45-20.46,85.61-20.46,135.46c0,45.16,5.87,87.03,17.64,125.59
		c11.75,38.58,29.39,71.96,52.92,100.18c23.5,28.22,52.67,50.1,87.48,65.62c34.79,15.52,75.26,23.28,121.35,23.28
		c27.27,0,53.63-3.04,79.03-9.17c25.4-6.11,48.19-15.99,68.43-29.64c20.22-13.63,36.91-31.26,50.1-52.92
		c13.17-21.63,22.1-47.97,26.81-79.02H3856V709.23z"/>
	<path class="st2" d="M4580.73,12076.49l-0.86-11835.74h276.57l510.81,650.51V240.75h275.16v1063.96h-275.16L4856.44,654.2
		l0.86,11422.29H4580.73z"/>
	<path class="st3" d="M77.83,187.26h409.21c72.43,0,140.4,14.59,203.91,43.74c63.49,29.18,118.99,67.98,166.5,116.41
		c47.49,48.47,84.89,104.91,112.18,169.33c27.27,64.45,40.92,131.94,40.92,202.49c0,69.63-13.4,136.65-40.21,201.08
		c-26.81,64.44-63.98,121.13-111.48,170.03c-47.51,48.93-103.01,87.97-166.51,117.12c-63.49,29.17-131.94,43.74-205.31,43.74H327.16
		l-22.26,10837.61l-227.08-1.08V187.26z M354.4,1016.98h63.5c47.97,0,90.77-7.51,128.4-22.57c37.62-15.03,69.37-35.74,95.26-62.09
		c25.86-26.33,45.62-57.61,59.26-93.84c13.63-36.2,20.46-75.95,20.46-119.24c0-42.34-7.05-81.84-21.17-118.53
		c-14.11-36.69-34.11-68.19-59.97-94.55c-25.89-26.33-57.63-47.02-95.25-62.09c-37.64-15.03-79.97-22.57-127-22.57h-63.5V1016.98z"
		/>
	<path class="st3" d="M1792.3,421.5h-328.79v177.79h310.45v234.24h-310.45v183.44h328.79v234.24h-605.36V187.26h605.36V421.5z"/>
	<path class="st3" d="M2575.44,459.6c-30.12-24.45-60.21-42.56-90.31-54.33c-30.12-11.75-59.27-17.64-87.49-17.64
		c-35.76,0-64.91,8.47-87.48,25.4c-22.57,16.94-33.87,39.05-33.87,66.33c0,18.82,5.65,34.35,16.94,46.57
		c11.28,12.23,26.11,22.81,44.44,31.74c18.34,8.96,39.03,16.72,62.1,23.28c23.03,6.59,45.86,13.66,68.43,21.17
		c90.31,30.12,156.39,70.34,198.26,120.65c41.85,50.34,62.8,115.94,62.8,196.85c0,54.57-9.18,103.95-27.52,148.17
		c-18.34,44.23-45.15,82.09-80.43,113.59c-35.27,31.53-78.56,55.98-129.82,73.38c-51.28,17.39-109.36,26.11-174.27,26.11
		c-134.54,0-259.17-39.98-373.93-119.94l118.53-222.95c41.38,36.69,82.31,63.98,122.76,81.84c40.44,17.89,80.43,26.81,119.94,26.81
		c45.16,0,78.78-10.34,100.89-31.04c22.1-20.68,33.17-44.21,33.17-70.56c0-15.98-2.82-29.86-8.47-41.63
		c-5.65-11.75-15.06-22.57-28.22-32.45c-13.19-9.89-30.34-19.05-51.5-27.52c-21.17-8.47-46.81-17.86-76.91-28.22
		c-35.76-11.29-70.8-23.74-105.12-37.39c-34.35-13.63-64.91-31.75-91.72-54.34c-26.81-22.57-48.46-51.02-64.91-85.37
		c-16.47-34.33-24.69-77.83-24.69-130.52c0-52.68,8.68-100.41,26.11-143.23c17.39-42.8,41.85-79.48,73.37-110.07
		c31.51-30.56,70.07-54.33,115.71-71.25c45.62-16.94,96.65-25.4,153.1-25.4c52.67,0,107.71,7.29,165.09,21.87
		c57.37,14.59,112.4,35.98,165.09,64.2L2575.44,459.6z"/>
	<path class="st3" d="M3179.38,187.26v11887.39h-276.57V187.26H3179.38z"/>
	<path class="st3" d="M3920.18,655.74h548.92c0,56.44-2.36,107.72-7.06,153.8c-4.72,46.11-14.11,88.9-28.22,128.41
		c-19.75,55.51-46.57,104.66-80.43,147.46c-33.87,42.81-73.62,78.56-119.24,107.25c-45.64,28.7-95.73,50.58-150.28,65.61
		c-54.57,15.04-111.95,22.58-172.15,22.58c-82.8,0-158.29-13.66-226.48-40.93c-68.22-27.27-126.78-65.61-175.68-115
		c-48.93-49.39-87.03-108.65-114.3-177.8c-27.3-69.14-40.92-145.56-40.92-229.3c0-82.78,13.4-158.75,40.21-227.9
		c26.81-69.14,64.91-128.16,114.3-177.08c49.39-48.91,108.87-87.01,178.5-114.3c69.61-27.27,147.22-40.92,232.83-40.92
		c111,0,208.36,23.98,292.1,71.96c83.71,47.97,150.03,122.3,198.96,222.95L4148.78,561.2c-24.47-58.32-56.22-100.18-95.25-125.59
		c-39.04-25.4-83.49-38.1-133.35-38.1c-41.41,0-79.02,7.76-112.88,23.28c-33.87,15.52-62.8,37.64-86.79,66.33
		c-23.98,28.7-42.81,63.27-56.44,103.71c-13.65,40.45-20.46,85.61-20.46,135.46c0,45.16,5.87,87.03,17.64,125.59
		c11.75,38.58,29.39,71.96,52.92,100.18c23.5,28.22,52.67,50.1,87.48,65.62c34.79,15.52,75.25,23.28,121.35,23.28
		c27.27,0,53.63-3.04,79.03-9.17c25.4-6.11,48.19-15.99,68.43-29.64c20.22-13.63,36.91-31.26,50.1-52.92
		c13.17-21.63,22.1-47.97,26.81-79.02h-227.19V655.74z"/>
	<path class="st3" d="M4650.26,12073.86l-6.2-11886.6h276.57l510.81,650.51V187.26h275.16v1063.96h-275.16l-510.81-650.51v11475.65
		L4650.26,12073.86z"/>
</g>
</svg>
