<?xml version="1.0" encoding="utf-8"?>
<!-- Generator: Adobe Illustrator 24.3.0, SVG Export Plug-In . SVG Version: 6.00 Build 0)  -->
<svg version="1.1" id="Layer_1" xmlns="http://www.w3.org/2000/svg" xmlns:xlink="http://www.w3.org/1999/xlink" x="0px" y="0px"
	 viewBox="0 0 6434.6 7484.2" style="enable-background:new 0 0 6434.6 7484.2;" xml:space="preserve">
<style type="text/css">
	.st0{fill:#010101;}
	.st1{fill:none;stroke:#E8CD57;stroke-width:1.4531;stroke-miterlimit:7.2655;}
</style>
<rect x="5.3" y="-0.8" class="st0" width="6429.7" height="7482.2"/>
<line class="st1" x1="-61" y1="46.2" x2="6446.4" y2="46.2"/>
<line class="st1" x1="-61" y1="157.3" x2="6446.4" y2="157.3"/>
<line class="st1" x1="-61" y1="268.4" x2="6446.4" y2="268.4"/>
<line class="st1" x1="-61" y1="379.6" x2="6446.4" y2="379.6"/>
<line class="st1" x1="-61" y1="490.7" x2="6446.4" y2="490.7"/>
<line class="st1" x1="-61" y1="601.8" x2="6446.4" y2="601.8"/>
<line class="st1" x1="-61" y1="713" x2="6446.4" y2="713"/>
<line class="st1" x1="-61" y1="824.1" x2="6446.4" y2="824.1"/>
<line class="st1" x1="-61" y1="935.2" x2="6446.4" y2="935.2"/>
<line class="st1" x1="-61" y1="1046.3" x2="6446.4" y2="1046.3"/>
<line class="st1" x1="-61" y1="1157.5" x2="6446.4" y2="1157.5"/>
<line class="st1" x1="-61" y1="1268.6" x2="6446.4" y2="1268.6"/>
<line class="st1" x1="-61" y1="1379.7" x2="6446.4" y2="1379.7"/>
<line class="st1" x1="-61" y1="1490.8" x2="6446.4" y2="1490.8"/>
<line class="st1" x1="-61" y1="1602" x2="6446.4" y2="1602"/>
<line class="st1" x1="-61" y1="1713.1" x2="6446.4" y2="1713.1"/>
<line class="st1" x1="-61" y1="1824.2" x2="6446.4" y2="1824.2"/>
<line class="st1" x1="-61" y1="1935.4" x2="6446.4" y2="1935.4"/>
<line class="st1" x1="-61" y1="2046.5" x2="6446.4" y2="2046.5"/>
<line class="st1" x1="-61" y1="2157.6" x2="6446.4" y2="2157.6"/>
<line class="st1" x1="-61" y1="2268.7" x2="6446.4" y2="2268.7"/>
<line class="st1" x1="-61" y1="2379.9" x2="6446.4" y2="2379.9"/>
<line class="st1" x1="-61" y1="2491" x2="6446.4" y2="2491"/>
<line class="st1" x1="-61" y1="2602.1" x2="6446.4" y2="2602.1"/>
<line class="st1" x1="-61" y1="2713.2" x2="6446.4" y2="2713.2"/>
<line class="st1" x1="-61" y1="2824.4" x2="6446.4" y2="2824.4"/>
<line class="st1" x1="-61" y1="2935.5" x2="6446.4" y2="2935.5"/>
<line class="st1" x1="-61" y1="3046.6" x2="6446.4" y2="3046.6"/>
<line class="st1" x1="-61" y1="3157.8" x2="6446.4" y2="3157.8"/>
<line class="st1" x1="-61" y1="3268.9" x2="6446.4" y2="3268.9"/>
<line class="st1" x1="-61" y1="3380" x2="6446.4" y2="3380"/>
<line class="st1" x1="-61" y1="3491.1" x2="6446.4" y2="3491.1"/>
<line class="st1" x1="-61" y1="3602.3" x2="6446.4" y2="3602.3"/>
<line class="st1" x1="-61" y1="3713.4" x2="6446.4" y2="3713.4"/>
<line class="st1" x1="-61" y1="3824.5" x2="6446.4" y2="3824.5"/>
<line class="st1" x1="-61" y1="3935.6" x2="6446.4" y2="3935.6"/>
<line class="st1" x1="-61" y1="4046.8" x2="6446.4" y2="4046.8"/>
<line class="st1" x1="-61" y1="4157.9" x2="6446.4" y2="4157.9"/>
<line class="st1" x1="-61" y1="4269" x2="6446.4" y2="4269"/>
<line class="st1" x1="-61" y1="4380.2" x2="6446.4" y2="4380.2"/>
<line class="st1" x1="-61" y1="4491.3" x2="6446.4" y2="4491.3"/>
<line class="st1" x1="-61" y1="4602.4" x2="6446.4" y2="4602.4"/>
<line class="st1" x1="-61" y1="4713.5" x2="6446.4" y2="4713.5"/>
<line class="st1" x1="-61" y1="4824.7" x2="6446.4" y2="4824.7"/>
<line class="st1" x1="-61" y1="4935.8" x2="6446.4" y2="4935.8"/>
<line class="st1" x1="-61" y1="5046.9" x2="6446.4" y2="5046.9"/>
<line class="st1" x1="-61" y1="5158" x2="6446.4" y2="5158"/>
<line class="st1" x1="-61" y1="5269.2" x2="6446.4" y2="5269.2"/>
<line class="st1" x1="-61" y1="5380.3" x2="6446.4" y2="5380.3"/>
<line class="st1" x1="-61" y1="5491.4" x2="6446.4" y2="5491.4"/>
<line class="st1" x1="-61" y1="5602.6" x2="6446.4" y2="5602.6"/>
<line class="st1" x1="-61" y1="5713.7" x2="6446.4" y2="5713.7"/>
<line class="st1" x1="-61" y1="5824.8" x2="6446.4" y2="5824.8"/>
<line class="st1" x1="-61" y1="5935.9" x2="6446.4" y2="5935.9"/>
<line class="st1" x1="-61" y1="6047.1" x2="6446.4" y2="6047.1"/>
<line class="st1" x1="-61" y1="6158.2" x2="6446.4" y2="6158.2"/>
<line class="st1" x1="-61" y1="6269.3" x2="6446.4" y2="6269.3"/>
<line class="st1" x1="-61" y1="6380.4" x2="6446.4" y2="6380.4"/>
<line class="st1" x1="-61" y1="6491.6" x2="6446.4" y2="6491.6"/>
<line class="st1" x1="-61" y1="6602.7" x2="6446.4" y2="6602.7"/>
<line class="st1" x1="-61" y1="6713.8" x2="6446.4" y2="6713.8"/>
<line class="st1" x1="-61" y1="6825" x2="6446.4" y2="6825"/>
<line class="st1" x1="-61" y1="6936.1" x2="6446.4" y2="6936.1"/>
<line class="st1" x1="-61" y1="7047.2" x2="6446.4" y2="7047.2"/>
<line class="st1" x1="-61" y1="7158.3" x2="6446.4" y2="7158.3"/>
<line class="st1" x1="-61" y1="7269.5" x2="6446.4" y2="7269.5"/>
<line class="st1" x1="-61" y1="7380.6" x2="6446.4" y2="7380.6"/>
<line class="st1" x1="-61" y1="7491.7" x2="6446.4" y2="7491.7"/>
<path class="st1" d="M56.7-65.4"/>
<line class="st1" x1="120.9" y1="7696.2" x2="120.9" y2="-65.4"/>
<path class="st1" d="M185.1-65.4"/>
<line class="st1" x1="249.4" y1="7696.2" x2="249.4" y2="-65.4"/>
<path class="st1" d="M313.6-65.4"/>
<line class="st1" x1="377.8" y1="7696.2" x2="377.8" y2="-65.4"/>
<path class="st1" d="M442.1-65.4"/>
<line class="st1" x1="506.3" y1="7696.2" x2="506.3" y2="-65.4"/>
<path class="st1" d="M570.5-65.4"/>
<line class="st1" x1="634.8" y1="7696.2" x2="634.8" y2="-65.4"/>
<path class="st1" d="M699-65.4"/>
<line class="st1" x1="763.3" y1="7696.2" x2="763.3" y2="-65.4"/>
<path class="st1" d="M827.5-65.4"/>
<line class="st1" x1="891.7" y1="7696.2" x2="891.7" y2="-65.4"/>
<path class="st1" d="M956-65.4"/>
<line class="st1" x1="1020.2" y1="7696.2" x2="1020.2" y2="-65.4"/>
<path class="st1" d="M1084.4-65.4"/>
<line class="st1" x1="1148.7" y1="7696.2" x2="1148.7" y2="-65.4"/>
<path class="st1" d="M1212.9-65.4"/>
<line class="st1" x1="1277.1" y1="7696.2" x2="1277.1" y2="-65.4"/>
<path class="st1" d="M1341.4-65.4"/>
<line class="st1" x1="1405.6" y1="7696.2" x2="1405.6" y2="-65.4"/>
<path class="st1" d="M1469.8-65.4"/>
<line class="st1" x1="1534.1" y1="7696.2" x2="1534.1" y2="-65.4"/>
<path class="st1" d="M1598.3-65.4"/>
<line class="st1" x1="1662.6" y1="7696.2" x2="1662.6" y2="-65.4"/>
<path class="st1" d="M1726.8-65.4"/>
<line class="st1" x1="1791" y1="7696.2" x2="1791" y2="-65.4"/>
<path class="st1" d="M1855.3-65.4"/>
<line class="st1" x1="1919.5" y1="7696.2" x2="1919.5" y2="-65.4"/>
<path class="st1" d="M1983.7-65.4"/>
<line class="st1" x1="2048" y1="7696.2" x2="2048" y2="-65.4"/>
<path class="st1" d="M2112.2-65.4"/>
<line class="st1" x1="2176.4" y1="7696.2" x2="2176.4" y2="-65.4"/>
<path class="st1" d="M2240.7-65.4"/>
<line class="st1" x1="2304.9" y1="7696.2" x2="2304.9" y2="-65.4"/>
<path class="st1" d="M2369.2-65.4"/>
<line class="st1" x1="2433.4" y1="7696.2" x2="2433.4" y2="-65.4"/>
<path class="st1" d="M2497.6-65.4"/>
<line class="st1" x1="2561.9" y1="7696.2" x2="2561.9" y2="-65.4"/>
<path class="st1" d="M2626.1-65.4"/>
<line class="st1" x1="2690.3" y1="7696.2" x2="2690.3" y2="-65.4"/>
<path class="st1" d="M2754.6-65.4"/>
<line class="st1" x1="2818.8" y1="7696.2" x2="2818.8" y2="-65.4"/>
<path class="st1" d="M2883-65.4"/>
<line class="st1" x1="2947.3" y1="7696.2" x2="2947.3" y2="-65.4"/>
<path class="st1" d="M3011.5-65.4"/>
<line class="st1" x1="3075.8" y1="7696.2" x2="3075.8" y2="-65.4"/>
<path class="st1" d="M3140-65.4"/>
<line class="st1" x1="3204.2" y1="7696.2" x2="3204.2" y2="-65.4"/>
<path class="st1" d="M3268.5-65.4"/>
<line class="st1" x1="3332.7" y1="7696.2" x2="3332.7" y2="-65.4"/>
<path class="st1" d="M3396.9-65.4"/>
<line class="st1" x1="3461.2" y1="7696.2" x2="3461.2" y2="-65.4"/>
<path class="st1" d="M3525.4-65.4"/>
<path class="st1" d="M3525.4,7696.2"/>
<line class="st1" x1="3589.6" y1="7696.2" x2="3589.6" y2="-65.4"/>
<path class="st1" d="M3653.9-65.4"/>
<line class="st1" x1="3718.1" y1="7696.2" x2="3718.1" y2="-65.4"/>
<path class="st1" d="M3782.4-65.4"/>
<line class="st1" x1="3846.6" y1="7696.2" x2="3846.6" y2="-65.4"/>
<path class="st1" d="M3910.8-65.4"/>
<line class="st1" x1="3975.1" y1="7696.2" x2="3975.1" y2="-65.4"/>
<path class="st1" d="M4039.3-65.4"/>
<line class="st1" x1="4103.5" y1="7696.2" x2="4103.5" y2="-65.4"/>
<path class="st1" d="M4167.8-65.4"/>
<line class="st1" x1="4232" y1="7696.2" x2="4232" y2="-65.4"/>
<path class="st1" d="M4296.2-65.4"/>
<line class="st1" x1="4360.5" y1="7696.2" x2="4360.5" y2="-65.4"/>
<path class="st1" d="M4424.7-65.4"/>
<line class="st1" x1="4489" y1="7696.2" x2="4489" y2="-65.4"/>
<path class="st1" d="M4553.2-65.4"/>
<line class="st1" x1="4617.4" y1="7696.2" x2="4617.4" y2="-65.4"/>
<path class="st1" d="M4681.7-65.4"/>
<path class="st1" d="M4681.7,7696.2"/>
<line class="st1" x1="4745.9" y1="7696.2" x2="4745.9" y2="-65.4"/>
<path class="st1" d="M4810.1-65.4"/>
<line class="st1" x1="4874.4" y1="7696.2" x2="4874.4" y2="-65.4"/>
<path class="st1" d="M4938.6-65.4"/>
<line class="st1" x1="5002.8" y1="7696.2" x2="5002.8" y2="-65.4"/>
<path class="st1" d="M5067.1-65.4"/>
<line class="st1" x1="5131.3" y1="7696.2" x2="5131.3" y2="-65.4"/>
<path class="st1" d="M5195.5-65.4"/>
<line class="st1" x1="5259.8" y1="7696.2" x2="5259.8" y2="-65.4"/>
<path class="st1" d="M5324-65.4"/>
<line class="st1" x1="5388.3" y1="7696.2" x2="5388.3" y2="-65.4"/>
<path class="st1" d="M5452.5-65.4"/>
<line class="st1" x1="5516.7" y1="7696.2" x2="5516.7" y2="-65.4"/>
<path class="st1" d="M5581-65.4"/>
<line class="st1" x1="5645.2" y1="7696.2" x2="5645.2" y2="-65.4"/>
<path class="st1" d="M5709.4-65.4"/>
<line class="st1" x1="5773.7" y1="7696.2" x2="5773.7" y2="-65.4"/>
<path class="st1" d="M5837.9-65.4"/>
<line class="st1" x1="5902.1" y1="7696.2" x2="5902.1" y2="-65.4"/>
<path class="st1" d="M5966.4-65.4"/>
<line class="st1" x1="6030.6" y1="7696.2" x2="6030.6" y2="-65.4"/>
<path class="st1" d="M6094.9-65.4"/>
<path class="st1" d="M6094.9,7696.2"/>
<line class="st1" x1="6159.1" y1="7696.2" x2="6159.1" y2="-65.4"/>
<path class="st1" d="M6223.3-65.4"/>
<line class="st1" x1="6287.6" y1="7696.2" x2="6287.6" y2="-65.4"/>
<line class="st1" x1="6416" y1="7696.2" x2="6416" y2="-65.4"/>
</svg>
