<?xml version="1.0" encoding="utf-8"?>
<!-- Generator: Adobe Illustrator 24.3.0, SVG Export Plug-In . SVG Version: 6.00 Build 0)  -->
<svg version="1.1" id="Layer_1" xmlns="http://www.w3.org/2000/svg" xmlns:xlink="http://www.w3.org/1999/xlink" x="0px" y="0px"
	 viewBox="0 0 9835.2 11275.2" style="enable-background:new 0 0 9835.2 11275.2;" xml:space="preserve">
<style type="text/css">
	.st0{fill:#010101;}
	.st1{fill:none;stroke:#E8CD57;stroke-width:2;stroke-miterlimit:10;}
	.st2{fill:#E8CD57;}
	.st3{fill:#030303;stroke:#FFFFFF;stroke-width:30;stroke-miterlimit:10;}
</style>
<rect x="10.99" y="-35.86" class="st0" width="9822.5" height="11438.13"/>
<g>
	<line class="st1" x1="-26.62" y1="545.69" x2="9845.17" y2="545.69"/>
	<line class="st1" x1="-26.62" y1="1058.32" x2="9845.17" y2="1058.32"/>
	<line class="st1" x1="-26.62" y1="1570.95" x2="9845.17" y2="1570.95"/>
	<line class="st1" x1="-26.62" y1="2083.59" x2="9845.17" y2="2083.59"/>
	<line class="st1" x1="-26.62" y1="2596.22" x2="9845.17" y2="2596.22"/>
	<line class="st1" x1="-26.62" y1="3108.85" x2="9845.17" y2="3108.85"/>
	<line class="st1" x1="-26.62" y1="3621.48" x2="9845.17" y2="3621.48"/>
	<line class="st1" x1="-26.62" y1="4134.12" x2="9845.17" y2="4134.12"/>
	<line class="st1" x1="-26.62" y1="4646.75" x2="9845.17" y2="4646.75"/>
	<line class="st1" x1="-26.62" y1="5159.38" x2="9845.17" y2="5159.38"/>
	<line class="st1" x1="-26.62" y1="5672.01" x2="9845.17" y2="5672.01"/>
	<line class="st1" x1="-26.62" y1="6184.65" x2="9845.17" y2="6184.65"/>
	<line class="st1" x1="-26.62" y1="6697.28" x2="9845.17" y2="6697.28"/>
	<line class="st1" x1="-26.62" y1="7209.91" x2="9845.17" y2="7209.91"/>
	<line class="st1" x1="-26.62" y1="7722.55" x2="9845.17" y2="7722.55"/>
	<line class="st1" x1="-26.62" y1="8235.18" x2="9845.17" y2="8235.18"/>
	<line class="st1" x1="-26.62" y1="8747.81" x2="9845.17" y2="8747.81"/>
	<line class="st1" x1="-26.62" y1="9260.44" x2="9845.17" y2="9260.44"/>
	<line class="st1" x1="-26.62" y1="9773.08" x2="9845.17" y2="9773.08"/>
	<line class="st1" x1="-26.62" y1="10285.71" x2="9845.17" y2="10285.71"/>
	<line class="st1" x1="-26.62" y1="10798.34" x2="9845.17" y2="10798.34"/>
	<line class="st1" x1="-26.62" y1="11310.97" x2="9845.17" y2="11310.97"/>
	<line class="st1" x1="208.7" y1="11407.32" x2="208.7" y2="-20.64"/>
	<line class="st1" x1="478.1" y1="11407.32" x2="478.1" y2="-20.64"/>
	<line class="st1" x1="747.49" y1="11407.32" x2="747.49" y2="-20.64"/>
	<line class="st1" x1="1016.89" y1="11407.32" x2="1016.89" y2="-20.64"/>
	<line class="st1" x1="1286.28" y1="11407.32" x2="1286.28" y2="-20.64"/>
	<line class="st1" x1="1555.68" y1="11407.32" x2="1555.68" y2="-20.64"/>
	<line class="st1" x1="1825.07" y1="11407.32" x2="1825.07" y2="-20.64"/>
	<line class="st1" x1="2094.47" y1="11407.32" x2="2094.47" y2="-20.64"/>
	<line class="st1" x1="2363.87" y1="11407.32" x2="2363.87" y2="-20.64"/>
	<line class="st1" x1="2633.26" y1="11407.32" x2="2633.26" y2="-20.64"/>
	<line class="st1" x1="2902.66" y1="11407.32" x2="2902.66" y2="-20.64"/>
	<line class="st1" x1="3172.05" y1="11407.32" x2="3172.05" y2="-20.64"/>
	<line class="st1" x1="3441.45" y1="11407.32" x2="3441.45" y2="-20.64"/>
	<line class="st1" x1="3710.84" y1="11407.32" x2="3710.84" y2="-20.64"/>
	<line class="st1" x1="3980.24" y1="11407.32" x2="3980.24" y2="-20.64"/>
	<line class="st1" x1="4249.63" y1="11407.32" x2="4249.63" y2="-20.64"/>
	<line class="st1" x1="4519.03" y1="11407.32" x2="4519.03" y2="-20.64"/>
	<line class="st1" x1="4788.42" y1="11407.32" x2="4788.42" y2="-20.64"/>
	<line class="st1" x1="5057.82" y1="11407.32" x2="5057.82" y2="-20.64"/>
	<line class="st1" x1="5327.22" y1="11407.32" x2="5327.22" y2="-20.64"/>
	<line class="st1" x1="5596.61" y1="11407.32" x2="5596.61" y2="-20.64"/>
	<line class="st1" x1="5866.01" y1="11407.32" x2="5866.01" y2="-20.64"/>
	<line class="st1" x1="6135.4" y1="11407.32" x2="6135.4" y2="-20.64"/>
	<line class="st1" x1="6404.8" y1="11407.32" x2="6404.8" y2="-20.64"/>
	<line class="st1" x1="6674.19" y1="11407.32" x2="6674.19" y2="-20.64"/>
	<line class="st1" x1="6943.59" y1="11407.32" x2="6943.59" y2="-20.64"/>
	<line class="st1" x1="7212.98" y1="11407.32" x2="7212.98" y2="-20.64"/>
	<line class="st1" x1="7482.38" y1="11407.32" x2="7482.38" y2="-20.64"/>
	<line class="st1" x1="7751.77" y1="11407.32" x2="7751.77" y2="-20.64"/>
	<line class="st1" x1="8021.17" y1="11407.32" x2="8021.17" y2="-20.64"/>
	<line class="st1" x1="8290.57" y1="11407.32" x2="8290.57" y2="-20.64"/>
	<line class="st1" x1="8559.96" y1="11407.32" x2="8559.96" y2="-20.64"/>
	<line class="st1" x1="8829.36" y1="11407.32" x2="8829.36" y2="-20.64"/>
	<line class="st1" x1="9098.75" y1="11407.32" x2="9098.75" y2="-20.64"/>
	<line class="st1" x1="9368.15" y1="11407.32" x2="9368.15" y2="-20.64"/>
	<line class="st1" x1="9637.54" y1="11407.32" x2="9637.54" y2="-20.64"/>
</g>
<path class="st2" d="M368.94,2302.77l-33.17,9133.97H-2.64V2270.43"/>
<path class="st2" d="M4719.11,2276.64l1.16,9131.62h-375.18l-1.16-9131.62H4719.11z"/>
<path class="st2" d="M7383.7,2605.27l1.16,8802.44h-374.76l-1.16-9121.06h374.76"/>
<path class="st3" d="M447.8,2259.92l-30.17,9178.27l-307.81-0.83V2263.1C117.88,2258.52,447.8,2259.92,447.8,2259.92z"/>
<path class="st3" d="M4806.18,2235.37v9170.98H4431V2235.37H4806.18z"/>
<path class="st3" d="M7470.67,2564.04v8843.57l-366.36-1.93l-8.4-9160.26h374.76C7454.62,2236.29,7470.67,2564.04,7470.67,2564.04z"
	/>
</svg>
