<svg xmlns="http://www.w3.org/2000/svg" viewBox="0 0 706.34 708.55"><defs><style>.cls-1,.cls-3{fill:#010101;}.cls-2{fill:none;}.cls-2,.cls-3{stroke:#fff;stroke-miterlimit:10;stroke-width:10px;}.cls-4{fill:#fff;}</style></defs><g id="Layer_1" data-name="Layer 1"><circle class="cls-1" cx="353.17" cy="355.38" r="353.17"/><polyline class="cls-2" points="154.1 528.47 226.21 441.13 482.26 441.13 549.47 518.07"/><polyline class="cls-2" points="147.82 290.37 222.03 429.16 485.4 429.16"/><circle class="cls-2" cx="449.26" cy="226.93" r="56.28"/><line class="cls-2" x1="400.43" y1="142.61" x2="421.22" y2="176.51"/><line class="cls-2" x1="482.47" y1="176.51" x2="498.88" y2="145.89"/><line class="cls-2" x1="498.88" y1="309.96" x2="478.09" y2="276.05"/><line class="cls-2" x1="416.84" y1="276.05" x2="400.43" y2="306.67"/><line class="cls-2" x1="505.54" y1="226.93" x2="544.81" y2="226.93"/><line class="cls-2" x1="355.69" y1="226.93" x2="394.97" y2="226.93"/></g><g id="Layer_2" data-name="Layer 2"><circle class="cls-1" cx="352.91" cy="352.61" r="352.61"/><path class="cls-3" d="M280.16,181.29l-34.23-17.61s-36.2-1-26.41,37.17c0,0,4.09,12.91-19,48.25s-36.88,97.32-36.88,97.32-22.53,100.91,39.44,160.83S323,567.69,323,567.69s62,11.27,127.54-21,85-101.41,85-101.41S553,393.54,534,325.42c0,0-20.92-52.75-25.61-62.49-2.69-5.6-25.09-47.63-25.09-47.63s-2.23-14.68,1-20c2.3-3.75,3.07-27.14-20.49-33.29A48.67,48.67,0,0,0,449,166.64c-6.66,3.58-31.25,16.9-31.25,16.9s-19.46,9.22-1,40.47,38.41,69.14,38.41,69.14,30.74,60.44,13.83,109.1-44.56,66.59-44.56,66.59S380.86,500.08,325,486.76s-68.64-38.41-68.64-38.41-23.56-29.2-27.66-67.1,11.78-70.17,11.78-70.17A476,476,0,0,1,283,230.66C310.68,188.66,280.16,181.29,280.16,181.29Z" transform="translate(-10.06 -4.22)"/><rect class="cls-4" x="216.36" y="265.94" width="13.73" height="23.48" rx="0.23" transform="translate(142.12 -75.66) rotate(27.29)"/><rect class="cls-4" x="197.55" y="315.13" width="13.73" height="23.48" rx="0.23" transform="translate(72.41 -43.08) rotate(13.58)"/><rect class="cls-4" x="189.29" y="356.85" width="13.73" height="23.48" rx="0.23" transform="translate(-46.8 17.83) rotate(-5.88)"/><rect class="cls-4" x="200.56" y="413.19" width="13.73" height="23.48" rx="0.23" transform="translate(-144.79 94.34) rotate(-20.33)"/><rect class="cls-4" x="473.6" y="255.3" width="13.73" height="23.48" rx="0.23" transform="translate(1019.84 279.82) rotate(152.71)"/><rect class="cls-4" x="492.41" y="304.49" width="13.73" height="23.48" rx="0.23" transform="translate(1048.79 502.16) rotate(166.42)"/><rect class="cls-4" x="501.18" y="346.21" width="13.73" height="23.48" rx="0.23" transform="translate(966.68 761.86) rotate(-174.12)"/><rect class="cls-4" x="489.91" y="402.55" width="13.73" height="23.48" rx="0.23" transform="translate(808.58 971.17) rotate(-159.67)"/></g></svg>